<?xml version="1.0" encoding="UTF-8"?>
<!DOCTYPE svg PUBLIC "-//W3C//DTD SVG 1.1//EN" "http://www.w3.org/Graphics/SVG/1.1/DTD/svg11.dtd">
<svg xmlns="http://www.w3.org/2000/svg" version="1.1" width="512px" height="512px" style="shape-rendering:geometricPrecision; text-rendering:geometricPrecision; image-rendering:optimizeQuality; fill-rule:evenodd; clip-rule:evenodd" xmlns:xlink="http://www.w3.org/1999/xlink">
<g><path style="opacity:0.981" fill="#fff" d="M 511.5,240.5 C 511.5,264.833 511.5,289.167 511.5,313.5C 507.574,320.458 501.574,323.124 493.5,321.5C 493.667,363.168 493.5,404.835 493,446.5C 492.167,447.333 491.333,448.167 490.5,449C 474.833,449.667 459.167,449.667 443.5,449C 438.167,444.333 438.167,439.667 443.5,435C 455.162,434.5 466.829,434.333 478.5,434.5C 478.5,396.833 478.5,359.167 478.5,321.5C 420.167,321.5 361.833,321.5 303.5,321.5C 303.5,334.833 303.5,348.167 303.5,361.5C 313.839,361.334 324.172,361.5 334.5,362C 335.667,363.167 336.833,364.333 338,365.5C 338.5,388.498 338.667,411.498 338.5,434.5C 365.502,434.333 392.502,434.5 419.5,435C 422.366,436.393 423.699,438.726 423.5,442C 423.699,445.274 422.366,447.607 419.5,449C 392.502,449.5 365.502,449.667 338.5,449.5C 338.666,458.173 338.5,466.84 338,475.5C 337.215,477.286 336.049,478.786 334.5,480C 281.833,480.667 229.167,480.667 176.5,480C 175.333,478.833 174.167,477.667 173,476.5C 172.5,467.506 172.334,458.506 172.5,449.5C 121.832,449.667 71.1656,449.5 20.5,449C 19.6667,448.167 18.8333,447.333 18,446.5C 17.3333,424.167 17.3333,401.833 18,379.5C 22.6667,374.167 27.3333,374.167 32,379.5C 32.4999,397.83 32.6666,416.164 32.5,434.5C 79.1667,434.5 125.833,434.5 172.5,434.5C 172.333,411.498 172.5,388.498 173,365.5C 173.833,364 175,362.833 176.5,362C 186.828,361.5 197.161,361.334 207.5,361.5C 207.5,348.167 207.5,334.833 207.5,321.5C 149.167,321.5 90.8333,321.5 32.5,321.5C 32.6665,332.505 32.4998,343.505 32,354.5C 30.6071,357.366 28.2738,358.699 25,358.5C 21.7262,358.699 19.3929,357.366 18,354.5C 17.5002,343.505 17.3335,332.505 17.5,321.5C 9.42637,323.124 3.42637,320.458 -0.5,313.5C -0.5,289.167 -0.5,264.833 -0.5,240.5C 1.31244,237.19 3.97911,234.69 7.5,233C 35.8314,232.5 64.1647,232.333 92.5,232.5C 92.5,194.833 92.5,157.167 92.5,119.5C 84.0759,121.372 78.2426,118.372 75,110.5C 74.3333,86.8333 74.3333,63.1667 75,39.5C 76.4421,35.7251 78.9421,32.8917 82.5,31C 99.1667,30.3333 115.833,30.3333 132.5,31C 137.833,35.6667 137.833,40.3333 132.5,45C 118.504,45.4999 104.504,45.6666 90.5,45.5C 90.5,65.1667 90.5,84.8333 90.5,104.5C 160.5,104.5 230.5,104.5 300.5,104.5C 300.5,84.8333 300.5,65.1667 300.5,45.5C 252.166,45.6667 203.832,45.5 155.5,45C 150.167,40.3333 150.167,35.6667 155.5,31C 206.167,30.3333 256.833,30.3333 307.5,31C 312.099,32.5981 314.932,35.7647 316,40.5C 316.667,63.5 316.667,86.5 316,109.5C 313.027,117.576 307.193,120.91 298.5,119.5C 298.5,157.167 298.5,194.833 298.5,232.5C 303.833,232.5 309.167,232.5 314.5,232.5C 314.014,198.413 314.514,164.413 316,130.5C 316.75,129.874 317.584,129.374 318.5,129C 371.167,128.333 423.833,128.333 476.5,129C 477.333,129.833 478.167,130.667 479,131.5C 480.486,165.08 480.986,198.746 480.5,232.5C 488.174,232.334 495.841,232.5 503.5,233C 507.021,234.69 509.688,237.19 511.5,240.5 Z M 108.5,119.5 C 166.5,119.5 224.5,119.5 282.5,119.5C 282.5,157.167 282.5,194.833 282.5,232.5C 224.5,232.5 166.5,232.5 108.5,232.5C 108.5,194.833 108.5,157.167 108.5,119.5 Z M 330.5,143.5 C 336.5,143.5 342.5,143.5 348.5,143.5C 348.032,158.93 348.532,174.263 350,189.5C 350.833,190.333 351.667,191.167 352.5,192C 370.5,192.667 388.5,192.667 406.5,192C 407.416,191.626 408.25,191.126 409,190.5C 410.469,174.929 410.969,159.263 410.5,143.5C 428.5,143.5 446.5,143.5 464.5,143.5C 464.5,173.167 464.5,202.833 464.5,232.5C 419.833,232.5 375.167,232.5 330.5,232.5C 330.5,202.833 330.5,173.167 330.5,143.5 Z M 364.5,143.5 C 374.5,143.5 384.5,143.5 394.5,143.5C 394.5,154.833 394.5,166.167 394.5,177.5C 384.5,177.5 374.5,177.5 364.5,177.5C 364.5,166.167 364.5,154.833 364.5,143.5 Z M 173.5,158.5 C 188.17,158.333 202.837,158.5 217.5,159C 224.999,162.499 227.833,168.333 226,176.5C 223.96,181.876 220.127,185.043 214.5,186C 200.444,186.928 186.444,186.595 172.5,185C 163.664,179.49 161.831,172.323 167,163.5C 168.965,161.45 171.132,159.783 173.5,158.5 Z M 14.5,247.5 C 84.8333,247.5 155.167,247.5 225.5,247.5C 225.5,267.167 225.5,286.833 225.5,306.5C 155.167,306.5 84.8333,306.5 14.5,306.5C 14.5,286.833 14.5,267.167 14.5,247.5 Z M 240.5,247.5 C 250.5,247.5 260.5,247.5 270.5,247.5C 270.333,269.503 270.5,291.503 271,313.5C 274.691,320.592 280.524,323.259 288.5,321.5C 288.5,334.833 288.5,348.167 288.5,361.5C 266.5,361.5 244.5,361.5 222.5,361.5C 222.5,348.167 222.5,334.833 222.5,321.5C 230.476,323.259 236.309,320.592 240,313.5C 240.5,291.503 240.667,269.503 240.5,247.5 Z M 285.5,247.5 C 355.833,247.5 426.167,247.5 496.5,247.5C 496.5,267.167 496.5,286.833 496.5,306.5C 426.167,306.5 355.833,306.5 285.5,306.5C 285.5,286.833 285.5,267.167 285.5,247.5 Z M 369.5,360.5 C 384.905,360.048 400.238,360.548 415.5,362C 423.515,368.437 424.515,375.771 418.5,384C 416.112,385.861 413.446,387.194 410.5,388C 396.431,388.947 382.431,388.614 368.5,387C 359.716,382.314 357.55,375.481 362,366.5C 364.134,363.847 366.634,361.847 369.5,360.5 Z M 188.5,376.5 C 194.833,376.5 201.167,376.5 207.5,376.5C 207.333,391.837 207.5,407.17 208,422.5C 208.833,423.333 209.667,424.167 210.5,425C 228.833,425.667 247.167,425.667 265.5,425C 266.333,424.167 267.167,423.333 268,422.5C 268.5,407.17 268.667,391.837 268.5,376.5C 286.5,376.5 304.5,376.5 322.5,376.5C 322.5,406.167 322.5,435.833 322.5,465.5C 277.833,465.5 233.167,465.5 188.5,465.5C 188.5,435.833 188.5,406.167 188.5,376.5 Z M 222.5,376.5 C 232.833,376.5 243.167,376.5 253.5,376.5C 253.5,387.833 253.5,399.167 253.5,410.5C 243.167,410.5 232.833,410.5 222.5,410.5C 222.5,399.167 222.5,387.833 222.5,376.5 Z"/></g>
<g><path style="opacity:0.931" fill="#fff" d="M 170.5,142.5 C 187.17,142.333 203.837,142.5 220.5,143C 237.537,149.228 244.704,161.395 242,179.5C 238.067,192.766 229.234,200.266 215.5,202C 202.167,202.667 188.833,202.667 175.5,202C 154.152,197.81 145.319,184.977 149,163.5C 152.776,152.889 159.943,145.889 170.5,142.5 Z M 173.5,158.5 C 171.132,159.783 168.965,161.45 167,163.5C 161.831,172.323 163.664,179.49 172.5,185C 186.444,186.595 200.444,186.928 214.5,186C 220.127,185.043 223.96,181.876 226,176.5C 227.833,168.333 224.999,162.499 217.5,159C 202.837,158.5 188.17,158.333 173.5,158.5 Z"/></g>
<g><path style="opacity:0.931" fill="#fff" d="M 95.5,344.5 C 111.837,344.333 128.17,344.5 144.5,345C 161.169,350.501 168.669,362.001 167,379.5C 163.804,394.362 154.637,402.529 139.5,404C 126.5,404.667 113.5,404.667 100.5,404C 88.1424,402.633 79.4757,396.3 74.5,385C 69.2515,364.994 76.2515,351.494 95.5,344.5 Z M 98.5,360.5 C 113.905,360.048 129.238,360.548 144.5,362C 152.515,368.437 153.515,375.771 147.5,384C 145.112,385.861 142.446,387.194 139.5,388C 125.431,388.947 111.431,388.614 97.5,387C 88.7163,382.314 86.5497,375.481 91,366.5C 93.1337,363.847 95.6337,361.847 98.5,360.5 Z"/></g>
<g><path style="opacity:0.931" fill="#fff" d="M 366.5,344.5 C 382.837,344.333 399.17,344.5 415.5,345C 432.169,350.501 439.669,362.001 438,379.5C 434.804,394.362 425.637,402.529 410.5,404C 397.5,404.667 384.5,404.667 371.5,404C 359.142,402.633 350.476,396.3 345.5,385C 340.251,364.994 347.251,351.494 366.5,344.5 Z M 369.5,360.5 C 366.634,361.847 364.134,363.847 362,366.5C 357.55,375.481 359.716,382.314 368.5,387C 382.431,388.614 396.431,388.947 410.5,388C 413.446,387.194 416.112,385.861 418.5,384C 424.515,375.771 423.515,368.437 415.5,362C 400.238,360.548 384.905,360.048 369.5,360.5 Z"/></g>
</svg>
