<?xml version="1.0" encoding="UTF-8"?>
<!DOCTYPE svg PUBLIC "-//W3C//DTD SVG 1.1//EN" "http://www.w3.org/Graphics/SVG/1.1/DTD/svg11.dtd">
<svg xmlns="http://www.w3.org/2000/svg" version="1.1" width="512px" height="512px" style="shape-rendering:geometricPrecision; text-rendering:geometricPrecision; image-rendering:optimizeQuality; fill-rule:evenodd; clip-rule:evenodd" xmlns:xlink="http://www.w3.org/1999/xlink">
<g><path style="opacity:0.96" fill="#fff" d="M 511.5,486.5 C 511.5,492.167 511.5,497.833 511.5,503.5C 350.791,503.994 190.124,503.494 29.5,502C 11.7814,494.219 4.61472,480.719 8,461.5C 11.7809,451.937 16.1142,442.603 21,433.5C 25.6264,428.694 30.6264,424.361 36,420.5C 42.1074,411.393 49.2741,403.227 57.5,396C 66.023,391.75 75.023,390.416 84.5,392C 90.7982,393.658 97.1316,395.158 103.5,396.5C 113.684,392.041 124.351,390.374 135.5,391.5C 135.5,370.167 135.5,348.833 135.5,327.5C 121.163,327.667 106.829,327.5 92.5,327C 63.8587,321.43 43.0254,305.597 30,279.5C 23.6646,263.379 21.8313,246.712 24.5,229.5C 45.461,232.804 66.461,235.971 87.5,239C 92.8995,240.244 98.0662,242.077 103,244.5C 101.789,221.479 107.122,200.145 119,180.5C 126.971,168.363 135.138,156.363 143.5,144.5C 152.863,158.03 162.029,171.697 171,185.5C 183.337,209.568 187.003,234.902 182,261.5C 189.385,257.693 197.219,255.193 205.5,254C 224.553,251.397 243.553,248.564 262.5,245.5C 268.109,287.119 252.442,317.619 215.5,337C 210.36,339.269 205.027,340.935 199.5,342C 183.549,343.422 167.549,343.922 151.5,343.5C 151.333,361.503 151.5,379.503 152,397.5C 154.469,400.033 157.302,401.533 160.5,402C 172.857,391.192 186.857,388.525 202.5,394C 206.165,395.497 209.498,397.497 212.5,400C 224.5,412 236.5,424 248.5,436C 253.206,438.541 258.206,439.541 263.5,439C 270.557,432.473 278.557,427.473 287.5,424C 295.493,423.5 303.493,423.334 311.5,423.5C 311.333,389.498 311.5,355.498 312,321.5C 313.833,317 317,313.833 321.5,312C 339.497,311.5 357.497,311.333 375.5,311.5C 375.833,251.83 375.5,192.163 374.5,132.5C 348.139,116.947 332.639,93.9467 328,63.5C 327.333,48.1667 327.333,32.8333 328,17.5C 329.833,13 333,9.83333 337.5,8C 384.167,7.33333 430.833,7.33333 477.5,8C 482,9.83333 485.167,13 487,17.5C 487.667,32.8333 487.667,48.1667 487,63.5C 482.361,93.9467 466.861,116.947 440.5,132.5C 439.5,192.163 439.167,251.83 439.5,311.5C 457.503,311.333 475.503,311.5 493.5,312C 498,313.833 501.167,317 503,321.5C 503.667,358.833 503.667,396.167 503,433.5C 500.67,452.834 493.837,470.334 482.5,486C 492.161,486.5 501.828,486.666 511.5,486.5 Z M 343.5,23.5 C 386.167,23.5 428.833,23.5 471.5,23.5C 471.5,28.8333 471.5,34.1667 471.5,39.5C 428.833,39.5 386.167,39.5 343.5,39.5C 343.5,34.1667 343.5,28.8333 343.5,23.5 Z M 344.5,55.5 C 386.5,55.5 428.5,55.5 470.5,55.5C 468.365,78.4406 458.365,97.1073 440.5,111.5C 437.422,92.7696 426.422,84.7696 407.5,87.5C 388.622,85.2984 377.289,93.1317 373.5,111C 356.313,96.461 346.647,77.961 344.5,55.5 Z M 399.5,103.5 C 405.925,103.13 412.258,103.63 418.5,105C 421.094,106.339 422.594,108.506 423,111.5C 423.5,172.832 423.667,234.166 423.5,295.5C 412.833,295.5 402.167,295.5 391.5,295.5C 391.333,234.166 391.5,172.832 392,111.5C 392.68,106.989 395.18,104.323 399.5,103.5 Z M 142.5,175.5 C 167.169,203.828 173.002,235.828 160,271.5C 157.839,276.492 155.172,281.159 152,285.5C 151.5,264.836 151.333,244.169 151.5,223.5C 146.167,223.5 140.833,223.5 135.5,223.5C 135.667,244.503 135.5,265.503 135,286.5C 118.741,259.852 116.075,231.852 127,202.5C 131.685,193.119 136.851,184.119 142.5,175.5 Z M 40.5,249.5 C 55.1929,251.432 69.8596,253.599 84.5,256C 92.0153,257.837 99.0153,260.837 105.5,265C 108.02,270.216 110.353,275.55 112.5,281C 105.285,277.969 97.952,274.803 90.5,271.5C 87.742,276.61 85.9086,281.943 85,287.5C 99.0516,293.438 111.885,301.271 123.5,311C 97.1202,314.651 74.6202,307.151 56,288.5C 46.4252,277.28 41.2585,264.28 40.5,249.5 Z M 158.5,308.5 C 168.251,287.603 184.584,275.103 207.5,271C 220.504,269.119 233.504,267.285 246.5,265.5C 242.796,298.374 224.796,318.54 192.5,326C 182.862,327.314 173.196,327.648 163.5,327C 175.115,317.271 187.948,309.438 202,303.5C 201.091,297.943 199.258,292.61 196.5,287.5C 182.905,292.961 170.238,299.961 158.5,308.5 Z M 391.5,311.5 C 402.167,311.5 412.833,311.5 423.5,311.5C 424.293,332.412 420.46,352.412 412,371.5C 409,375.5 406,375.5 403,371.5C 394.54,352.412 390.707,332.412 391.5,311.5 Z M 327.5,327.5 C 343.5,327.5 359.5,327.5 375.5,327.5C 375.732,347.362 380.566,366.029 390,383.5C 398.998,392.374 409.164,393.874 420.5,388C 425.733,382.374 429.566,375.874 432,368.5C 436.752,355.24 439.252,341.574 439.5,327.5C 455.5,327.5 471.5,327.5 487.5,327.5C 487.897,362.519 487.397,397.519 486,432.5C 482.713,452.904 474.213,470.738 460.5,486C 452.5,486.667 444.5,486.667 436.5,486C 432.872,479.245 429.372,472.412 426,465.5C 418.833,457.051 409.666,453.384 398.5,454.5C 394.585,448.368 389.252,443.868 382.5,441C 372.844,439.967 363.177,438.967 353.5,438C 347.663,434.582 341.996,430.916 336.5,427C 333.978,425.659 331.311,424.826 328.5,424.5C 327.544,392.184 327.211,359.851 327.5,327.5 Z M 70.5,408.5 C 75.9127,408.229 81.2461,408.729 86.5,410C 86.8333,410.333 87.1667,410.667 87.5,411C 85.316,413.016 83.316,415.183 81.5,417.5C 85.1667,421.833 89.1667,425.833 93.5,429.5C 99.6832,423.483 106.017,417.649 112.5,412C 123.854,406.863 134.854,407.53 145.5,414C 153.348,422.015 161.348,429.848 169.5,437.5C 173.833,433.833 177.833,429.833 181.5,425.5C 178.85,422.349 176.016,419.349 173,416.5C 172.333,415.833 172.333,415.167 173,414.5C 181.197,407.525 190.03,406.691 199.5,412C 212.529,425.363 225.862,438.363 239.5,451C 247.343,454.863 255.676,456.529 264.5,456C 270.087,456.544 274.587,459.044 278,463.5C 281.706,471.078 285.539,478.578 289.5,486C 211.163,486.206 132.829,486.706 54.5,487.5C 48.1204,487.511 41.787,487.011 35.5,486C 24.9746,480.771 21.8079,472.604 26,461.5C 29.1999,454.262 33.0333,447.429 37.5,441C 46.0979,439.624 54.7646,439.124 63.5,439.5C 63.5,434.167 63.5,428.833 63.5,423.5C 60.8127,423.664 58.146,423.497 55.5,423C 59.7348,417.263 64.7348,412.43 70.5,408.5 Z M 295.5,439.5 C 305.557,439.135 315.557,439.635 325.5,441C 332.593,445.764 339.926,450.097 347.5,454C 355.089,455.231 362.756,455.897 370.5,456C 373.754,456.25 376.754,457.25 379.5,459C 377.333,461.167 375.167,463.333 373,465.5C 369.628,472.412 366.128,479.245 362.5,486C 344.5,486.667 326.5,486.667 308.5,486C 302.872,475.245 297.372,464.411 292,453.5C 289.833,450 287,447.167 283.5,445C 287.227,442.299 291.227,440.465 295.5,439.5 Z M 393.5,471.5 C 398.913,471.229 404.246,471.729 409.5,473C 412.668,476.999 415.335,481.332 417.5,486C 405.5,486.667 393.5,486.667 381.5,486C 383.461,482.579 385.294,479.079 387,475.5C 388.792,473.372 390.958,472.039 393.5,471.5 Z"/></g>
<g><path style="opacity:0.948" fill="#fff" d="M 103.5,439.5 C 114.505,439.333 125.505,439.5 136.5,440C 144.839,444.168 151.839,450.001 157.5,457.5C 153.833,461.833 149.833,465.833 145.5,469.5C 141.015,465.515 136.682,461.349 132.5,457C 122.9,455.609 113.233,455.109 103.5,455.5C 103.5,450.167 103.5,444.833 103.5,439.5 Z"/></g>
<g><path style="opacity:0.879" fill="#fff" d="M 200.5,441.5 C 205.419,444.748 209.753,448.748 213.5,453.5C 208.5,459.167 203.167,464.5 197.5,469.5C 193.167,465.833 189.167,461.833 185.5,457.5C 190.522,452.146 195.522,446.813 200.5,441.5 Z"/></g>
<g><path style="opacity:0.879" fill="#fff" d="M 80.5,449.5 C 85.4194,452.748 89.7528,456.748 93.5,461.5C 88.5,467.167 83.1667,472.5 77.5,477.5C 73.1667,473.833 69.1667,469.833 65.5,465.5C 70.5217,460.146 75.5217,454.813 80.5,449.5 Z"/></g>
</svg>
