<?xml version="1.0" standalone="no"?>
<!DOCTYPE svg PUBLIC "-//W3C//DTD SVG 20010904//EN"
 "http://www.w3.org/TR/2001/REC-SVG-20010904/DTD/svg10.dtd">
<svg version="1.0" xmlns="http://www.w3.org/2000/svg"
 width="512.000000pt" height="512.000000pt" viewBox="0 0 512.000000 512.000000"
 preserveAspectRatio="xMidYMid meet">

<g transform="translate(0.000000,512.000000) scale(0.100000,-0.100000)"
fill="#fff" stroke="none">
<path d="M105 5015 l-25 -24 0 -2191 0 -2191 25 -24 24 -25 1878 0 1877 0 226
-224 c194 -193 232 -225 274 -240 97 -32 192 -11 261 59 99 99 98 244 -2 355
l-45 50 197 0 c195 0 196 0 220 25 l25 24 0 2191 0 2191 -25 24 -24 25 -2431
0 -2431 0 -24 -25z m4775 -2215 l0 -2080 -222 0 -223 0 -442 442 -442 442 21
39 c25 50 33 130 19 184 -6 22 -29 68 -51 101 -22 33 -40 67 -40 77 0 9 42 60
93 113 105 109 128 143 151 221 30 101 14 210 -44 301 -16 25 -91 107 -168
183 -152 150 -171 160 -226 116 l-27 -21 -103 101 c-90 88 -107 101 -137 101
-31 0 -81 -47 -696 -663 -616 -615 -663 -665 -663 -696 0 -30 13 -47 101 -137
l101 -103 -21 -27 c-44 -55 -34 -74 117 -226 75 -77 157 -152 182 -168 91 -58
200 -74 301 -44 78 23 112 46 221 151 53 51 104 93 113 93 10 0 44 -18 76 -39
97 -65 205 -74 298 -27 l27 15 265 -265 264 -264 -1743 0 -1742 0 0 2080 0
2080 2320 0 2320 0 0 -2080z m-1775 60 l60 -60 -583 -583 -582 -582 -62 63
-63 62 580 580 c319 319 582 580 585 580 3 0 32 -27 65 -60z m362 -202 c104
-105 133 -151 133 -210 0 -75 -19 -109 -120 -213 -53 -55 -105 -115 -114 -132
-41 -80 -29 -171 32 -250 30 -40 37 -56 37 -95 l0 -48 -160 -161 c-88 -88
-172 -167 -187 -175 -39 -20 -70 -17 -109 11 -78 56 -112 69 -179 69 -85 0
-111 -14 -235 -134 -88 -84 -108 -99 -153 -110 -42 -9 -63 -9 -104 1 -47 11
-65 24 -163 120 l-110 108 660 661 c363 363 662 660 665 660 3 0 51 -46 107
-102z m536 -1736 c511 -512 557 -560 557 -590 0 -46 -46 -92 -92 -92 -30 0
-78 46 -593 560 l-560 560 60 60 c33 33 62 60 65 60 3 0 256 -251 563 -558z"/>
<path d="M3946 4537 c-17 -18 -24 -39 -29 -92 -18 -191 -171 -344 -363 -362
-80 -7 -114 -32 -114 -83 0 -51 34 -76 114 -83 192 -18 345 -171 363 -362 7
-81 32 -115 83 -115 51 0 76 34 83 115 18 191 171 344 363 362 80 7 114 32
114 83 0 51 -34 76 -114 83 -192 18 -345 171 -363 362 -7 81 -32 115 -83 115
-19 0 -40 -9 -54 -23z m98 -406 c20 -28 59 -67 87 -87 27 -21 49 -41 49 -44 0
-3 -22 -23 -49 -44 -28 -20 -67 -59 -87 -87 -21 -27 -41 -49 -44 -49 -3 0 -23
22 -44 49 -20 28 -59 67 -87 87 -27 21 -49 41 -49 44 0 3 22 23 49 44 28 20
67 59 87 87 21 27 41 49 44 49 3 0 23 -22 44 -49z"/>
<path d="M1757 4322 c-26 -26 -47 -52 -47 -57 0 -6 250 -260 555 -565 l555
-555 57 58 58 57 -555 555 c-305 305 -560 555 -565 555 -6 0 -32 -22 -58 -48z"/>
<path d="M2397 4242 c-26 -26 -47 -52 -47 -58 0 -5 34 -43 75 -84 l75 -75 57
58 58 57 -75 75 c-41 41 -79 75 -85 75 -6 0 -32 -22 -58 -48z"/>
<path d="M2717 3922 c-26 -26 -47 -52 -47 -57 0 -6 178 -188 395 -405 l395
-395 57 58 58 57 -395 395 c-217 217 -400 395 -405 395 -6 0 -32 -22 -58 -48z"/>
<path d="M1626 3657 c-17 -18 -24 -39 -29 -92 -18 -191 -171 -344 -363 -362
-80 -7 -114 -32 -114 -83 0 -51 34 -76 114 -83 192 -18 345 -171 363 -362 7
-81 32 -115 83 -115 51 0 76 34 83 115 18 191 171 344 363 362 80 7 114 32
114 83 0 51 -34 76 -114 83 -192 18 -345 171 -363 362 -7 81 -32 115 -83 115
-19 0 -40 -9 -54 -23z m98 -406 c20 -28 59 -67 87 -87 27 -21 49 -41 49 -44 0
-3 -22 -23 -49 -44 -28 -20 -67 -59 -87 -87 -21 -27 -41 -49 -44 -49 -3 0 -23
22 -44 49 -20 28 -59 67 -87 87 -27 21 -49 41 -49 44 0 3 22 23 49 44 28 20
67 59 87 87 21 27 41 49 44 49 3 0 23 -22 44 -49z"/>
<path d="M477 3042 c-26 -26 -47 -52 -47 -57 0 -6 250 -260 555 -565 l555
-555 57 58 58 57 -555 555 c-305 305 -560 555 -565 555 -6 0 -32 -22 -58 -48z"/>
<path d="M477 2482 c-26 -26 -47 -52 -47 -58 0 -5 34 -43 75 -84 l75 -75 57
58 58 57 -75 75 c-41 41 -79 75 -85 75 -6 0 -32 -22 -58 -48z"/>
<path d="M797 2162 c-26 -26 -47 -52 -47 -57 0 -6 178 -188 395 -405 l395
-395 57 58 58 57 -395 395 c-217 217 -400 395 -405 395 -6 0 -32 -22 -58 -48z"/>
<path d="M2782 2017 c-281 -281 -512 -517 -512 -522 0 -13 92 -105 105 -105 6
0 242 232 525 515 l515 515 -55 55 c-30 30 -57 55 -60 55 -3 0 -236 -231 -518
-513z"/>
<path d="M2957 1842 c-26 -26 -47 -52 -47 -58 0 -5 34 -43 75 -84 l75 -75 57
58 58 57 -75 75 c-41 41 -79 75 -85 75 -6 0 -32 -22 -58 -48z"/>
</g>
</svg>
