<?xml version="1.0" standalone="no"?>
<!DOCTYPE svg PUBLIC "-//W3C//DTD SVG 20010904//EN"
 "http://www.w3.org/TR/2001/REC-SVG-20010904/DTD/svg10.dtd">
<svg version="1.0" xmlns="http://www.w3.org/2000/svg"
 width="512.000000pt" height="512.000000pt" viewBox="0 0 512.000000 512.000000"
 preserveAspectRatio="xMidYMid meet">

<g transform="translate(0.000000,512.000000) scale(0.100000,-0.100000)"
fill="#fff" stroke="none">
<path d="M2258 5104 c-31 -16 -32 -21 -48 -157 -33 -283 -151 -491 -340 -600
-70 -40 -168 -67 -275 -76 -90 -8 -101 -11 -122 -35 -28 -32 -30 -76 -5 -106
19 -23 77 -39 147 -40 23 0 68 -7 100 -15 279 -71 455 -308 495 -666 13 -118
22 -142 57 -158 38 -17 62 -13 92 17 25 24 28 37 34 117 15 213 94 406 217
531 103 104 217 156 387 174 54 6 108 16 120 22 33 17 48 61 33 98 -17 41 -57
60 -128 60 -77 0 -198 32 -272 71 -123 66 -229 190 -289 340 -35 87 -71 255
-71 329 0 44 -4 56 -29 81 -32 32 -62 36 -103 13z m154 -690 c49 -67 132 -144
207 -192 l61 -40 -65 -42 c-98 -64 -213 -191 -267 -295 l-45 -86 -31 63 c-61
125 -166 242 -288 323 l-55 37 43 27 c126 81 229 193 295 325 l35 69 37 -69
c20 -39 53 -93 73 -120z"/>
<path d="M4710 5111 c-14 -5 -39 -15 -55 -24 -17 -9 -689 -675 -1494 -1481
l-1465 -1465 -50 46 c-28 25 -69 54 -91 64 -54 25 -157 25 -210 0 -72 -33
-145 -129 -145 -190 0 -18 -5 -19 -53 -14 -127 13 -337 -39 -464 -115 -149
-88 -252 -196 -329 -345 -180 -347 -100 -771 195 -1033 l44 -39 -209 -5 c-234
-6 -243 -8 -314 -81 -118 -122 -79 -321 80 -405 34 -18 113 -19 2410 -19 2297
0 2376 1 2410 19 96 50 144 128 145 231 0 80 -19 128 -72 181 -66 66 -77 69
-301 72 l-203 3 7 37 c4 20 55 291 113 602 l106 565 31 15 c58 29 90 59 119
112 38 69 42 170 8 233 -40 74 -113 128 -191 141 -39 6 -40 7 -45 54 -13 105
-82 202 -181 250 l-63 31 -12 70 c-31 187 -173 330 -360 360 -124 20 -270 -29
-363 -122 l-47 -47 -73 0 c-142 1 -266 -79 -318 -204 -21 -51 -27 -57 -79 -79
-102 -42 -185 -151 -198 -259 -5 -47 -6 -48 -45 -54 -78 -13 -151 -67 -191
-141 -16 -30 -21 -58 -22 -110 0 -60 4 -78 31 -125 28 -49 44 -64 136 -125 11
-7 46 -173 123 -585 58 -316 109 -585 112 -597 l5 -23 -289 0 -288 0 -13 78
c-31 201 -179 366 -373 417 -30 8 -93 15 -140 15 l-87 0 5 128 c3 70 8 130 12
133 3 3 25 11 49 18 52 15 116 70 145 125 16 31 21 59 21 111 0 81 -17 122
-85 198 l-42 49 1475 1476 c1233 1234 1478 1484 1489 1517 16 53 15 142 -4
186 -48 116 -190 185 -307 150z m125 -186 c18 -17 25 -35 25 -62 0 -37 -34
-72 -1462 -1500 l-1463 -1463 -60 60 -60 60 1465 1465 c1353 1353 1468 1465
1498 1465 22 0 41 -8 57 -25z m-706 -2141 c96 -48 145 -147 134 -273 -5 -65
-4 -71 20 -95 19 -19 36 -26 65 -26 80 0 171 -78 172 -147 l0 -23 -680 0
c-678 0 -680 0 -680 20 0 36 38 97 74 120 19 11 59 25 87 29 57 9 89 36 89 75
0 78 58 155 130 174 32 8 55 7 96 -4 80 -21 99 -18 128 17 14 17 26 34 26 38
0 17 76 85 114 102 63 29 159 25 225 -7z m-2378 -941 c177 -177 260 -267 265
-287 14 -58 -44 -116 -102 -102 -20 5 -109 87 -286 265 -245 244 -258 259
-258 295 0 51 35 86 87 86 35 0 49 -12 294 -257z m2979 194 c55 -28 64 -94 18
-137 -22 -20 -32 -20 -908 -20 -876 0 -886 0 -908 20 -46 43 -37 109 18 137
36 18 1744 18 1780 0z m-3540 -166 l55 -10 268 -268 269 -268 5 -95 c3 -57 1
-118 -6 -152 l-12 -58 -92 0 c-79 0 -94 -3 -114 -22 -33 -31 -31 -87 3 -119
25 -24 26 -24 302 -29 l277 -5 63 -34 c98 -53 161 -144 177 -254 l7 -48 -698
3 c-777 4 -743 1 -890 74 -387 190 -496 706 -222 1041 147 179 397 279 608
244z m3397 -183 c-3 -13 -54 -283 -113 -601 l-108 -577 -526 0 -526 0 -108
578 c-59 317 -110 587 -113 600 l-5 22 752 0 752 0 -5 -22z m324 -1361 c46
-35 50 -88 10 -128 l-29 -29 -2332 0 -2332 0 -29 29 c-40 40 -36 93 10 128 23
18 4679 18 4702 0z"/>
<path d="M3384 1531 c-53 -23 -69 -89 -33 -135 20 -26 22 -26 144 -26 140 0
161 9 171 71 5 29 1 41 -19 65 -24 28 -27 29 -133 31 -60 2 -119 -1 -130 -6z"/>
<path d="M3903 1533 c-31 -6 -63 -49 -63 -85 0 -17 10 -39 25 -53 24 -24 27
-25 185 -25 89 0 170 4 180 10 10 5 24 25 30 44 15 46 -7 89 -51 105 -30 10
-258 13 -306 4z"/>
<path d="M560 4937 c-32 -16 -52 -59 -44 -91 3 -13 45 -63 94 -110 100 -98
122 -105 171 -57 50 50 36 91 -63 187 -88 86 -110 96 -158 71z"/>
<path d="M988 4862 c-78 -78 -88 -92 -88 -124 0 -47 26 -77 73 -85 36 -5 40
-3 128 84 84 82 91 92 91 128 0 48 -37 85 -84 85 -27 0 -47 -15 -120 -88z"/>
<path d="M944 4556 c-34 -15 -44 -32 -44 -79 0 -26 15 -46 87 -119 75 -75 92
-88 121 -88 46 0 82 38 82 86 0 31 -9 46 -72 111 -40 42 -87 82 -105 89 -38
16 -31 16 -69 0z"/>
<path d="M604 4479 c-87 -85 -105 -120 -83 -161 18 -34 40 -47 78 -48 30 0 46
11 123 88 74 75 88 93 88 121 0 45 -38 81 -86 81 -32 0 -46 -9 -120 -81z"/>
<path d="M539 3811 c-24 -24 -29 -38 -29 -78 0 -68 -34 -203 -69 -270 -67
-132 -156 -194 -312 -217 -74 -11 -97 -19 -111 -36 -25 -31 -23 -74 6 -106 20
-24 33 -29 99 -35 217 -21 360 -189 383 -453 9 -95 18 -114 58 -131 69 -29
111 9 121 110 27 279 163 452 368 471 110 10 137 29 137 98 0 49 -32 71 -115
80 -226 23 -361 188 -390 475 -6 58 -12 79 -31 98 -33 33 -78 31 -115 -6z m90
-478 c34 -54 91 -117 135 -151 l29 -23 -56 -50 c-31 -28 -75 -79 -98 -114
l-42 -63 -37 56 c-35 55 -136 162 -152 162 -4 0 25 33 66 73 40 39 83 91 95
115 12 23 23 42 25 42 2 0 18 -21 35 -47z"/>
<path d="M4243 3729 c-49 -24 -109 -87 -129 -135 -18 -43 -18 -145 0 -189 75
-178 308 -217 431 -72 113 132 64 334 -98 402 -54 22 -153 20 -204 -6z m156
-159 c31 -16 46 -65 31 -100 -15 -37 -62 -64 -93 -54 -64 19 -87 87 -46 138
22 28 72 36 108 16z"/>
<path d="M4692 3227 c-43 -13 -118 -80 -141 -126 -79 -155 24 -347 198 -368
150 -18 281 100 281 253 0 72 -17 119 -62 170 -64 72 -180 102 -276 71z m143
-182 c41 -40 33 -105 -17 -131 -59 -30 -122 7 -122 73 0 72 89 109 139 58z"/>
</g>
</svg>
