<?xml version="1.0" standalone="no"?>
<!DOCTYPE svg PUBLIC "-//W3C//DTD SVG 20010904//EN"
 "http://www.w3.org/TR/2001/REC-SVG-20010904/DTD/svg10.dtd">
<svg version="1.0" xmlns="http://www.w3.org/2000/svg"
 width="512.000000pt" height="512.000000pt" viewBox="0 0 512.000000 512.000000"
 preserveAspectRatio="xMidYMid meet">

<g transform="translate(0.000000,512.000000) scale(0.100000,-0.100000)"
fill="#fff" stroke="none">
<path d="M3784 5097 c-24 -21 -27 -32 -35 -118 -24 -291 -157 -533 -349 -633
-83 -44 -202 -76 -282 -76 -62 0 -111 -18 -122 -45 -13 -36 -6 -82 17 -102 17
-16 45 -23 123 -32 173 -18 293 -70 392 -169 119 -119 201 -317 221 -532 9
-101 26 -135 70 -145 34 -7 85 15 95 41 4 9 11 60 16 113 26 244 122 451 261
561 101 80 198 116 349 131 93 9 108 13 128 35 30 34 29 84 -3 114 -20 19 -41
24 -117 31 -177 15 -298 70 -405 183 -128 134 -192 297 -219 560 -10 98 -77
137 -140 83z m74 -531 c38 -104 180 -270 293 -343 32 -21 59 -40 59 -43 0 -3
-17 -15 -38 -27 -113 -64 -225 -185 -293 -316 l-40 -77 -34 67 c-52 102 -130
198 -214 265 -41 33 -86 65 -98 71 -13 6 -23 14 -23 18 0 4 21 19 46 34 107
63 272 254 305 352 13 42 22 42 37 -1z"/>
<path d="M1250 4259 c-31 -11 6 46 -489 -748 -258 -413 -421 -683 -421 -698 0
-14 13 -37 29 -54 l29 -29 226 0 226 0 0 -247 c0 -236 -1 -245 -18 -230 -47
43 -79 47 -365 47 l-273 0 -52 -26 c-29 -14 -65 -42 -82 -62 -63 -77 -61 -34
-58 -1078 l3 -949 22 -40 c25 -47 74 -95 123 -121 32 -17 61 -19 320 -19 310
0 316 1 380 61 l26 24 1144 2 c1143 3 1145 3 1201 24 31 12 71 30 90 39 97 49
1688 1025 1716 1053 18 18 45 56 60 85 23 44 27 65 27 137 1 70 -4 94 -24 135
-52 106 -153 174 -270 182 -58 5 -82 0 -210 -42 -80 -26 -151 -50 -157 -52
-10 -4 -13 107 -13 536 l0 541 141 0 141 0 29 29 c16 17 29 40 29 54 0 26
-478 800 -508 823 -49 38 -132 -4 -132 -66 0 -29 26 -73 352 -592 l48 -78
-1179 0 -1180 0 -366 586 c-202 323 -369 593 -372 600 -4 12 99 14 659 14
l665 0 20 23 c29 31 34 52 21 87 -21 62 5 60 -800 59 -424 0 -744 -4 -758 -10z
m108 -364 c40 -64 72 -119 72 -123 0 -4 -121 -201 -268 -437 l-269 -430 -157
-3 -157 -3 34 53 c18 29 174 279 347 556 172 276 317 502 320 502 4 0 39 -52
78 -115z m452 -722 c176 -283 271 -425 287 -432 14 -7 93 -11 198 -11 l175 0
0 -471 0 -471 -262 4 c-240 4 -269 7 -333 27 -92 31 -165 68 -250 131 -86 63
-228 133 -315 156 -36 9 -114 19 -175 23 l-110 6 -3 325 -2 325 257 412 c142
227 260 409 264 405 3 -4 124 -197 269 -429z m2460 -1012 l0 -569 -587 -196
c-324 -107 -608 -198 -633 -201 l-45 -7 0 124 c0 119 -1 125 -34 192 -48 100
-143 191 -243 236 l-78 35 0 478 0 477 810 0 810 0 0 -569z m-3532 -51 c12
-11 24 -31 27 -43 3 -12 4 -433 3 -935 l-3 -914 -28 -24 c-28 -24 -29 -24
-268 -24 l-241 0 -29 29 -29 29 0 917 c0 789 2 920 15 945 8 15 20 30 27 33 7
3 124 6 259 6 233 1 246 0 267 -19z m505 -166 c99 -22 186 -64 283 -134 102
-75 196 -122 310 -156 87 -26 97 -27 429 -33 l340 -6 52 -28 c77 -40 118 -81
153 -149 36 -73 39 -141 10 -205 l-19 -43 -318 0 c-348 0 -409 -8 -539 -65
-79 -35 -200 -111 -219 -138 -22 -32 -19 -80 8 -105 40 -37 66 -36 132 4 106
65 139 82 205 106 64 22 75 23 555 28 l490 5 834 279 c897 300 874 294 940
247 38 -28 66 -98 57 -146 -4 -20 -21 -52 -39 -70 -37 -39 -1623 -1007 -1712
-1045 l-60 -25 -1097 -3 -1098 -2 0 850 0 850 116 0 c70 0 143 -6 187 -16z"/>
<path d="M3959 2371 c-24 -19 -24 -21 -29 -268 l-5 -248 -200 -67 c-286 -97
-283 -96 -301 -130 -28 -54 10 -117 71 -118 51 0 546 169 575 196 l25 24 0
291 0 291 -28 24 c-34 29 -76 31 -108 5z"/>
</g>
</svg>
