<?xml version="1.0" encoding="UTF-8"?>
<!DOCTYPE svg PUBLIC "-//W3C//DTD SVG 1.1//EN" "http://www.w3.org/Graphics/SVG/1.1/DTD/svg11.dtd">
<svg xmlns="http://www.w3.org/2000/svg" version="1.1" width="512px" height="512px" style="shape-rendering:geometricPrecision; text-rendering:geometricPrecision; image-rendering:optimizeQuality; fill-rule:evenodd; clip-rule:evenodd" xmlns:xlink="http://www.w3.org/1999/xlink">
<g><path style="opacity:0.946" fill="#fff" d="M 511.5,281.5 C 511.5,308.833 511.5,336.167 511.5,363.5C 509.981,366.021 508.314,368.521 506.5,371C 504.112,372.861 501.446,374.194 498.5,375C 486.505,375.5 474.505,375.667 462.5,375.5C 461.359,386.77 456.692,396.27 448.5,404C 468.167,404.333 487.833,404.667 507.5,405C 508.705,406.376 510.038,407.542 511.5,408.5C 511.5,411.167 511.5,413.833 511.5,416.5C 509.99,417.836 508.323,419.003 506.5,420C 339.167,420.667 171.833,420.667 4.5,420C 2.67694,419.003 1.01027,417.836 -0.5,416.5C -0.5,413.833 -0.5,411.167 -0.5,408.5C 0.961599,407.542 2.29493,406.376 3.5,405C 28.8333,404.667 54.1667,404.333 79.5,404C 71.3077,396.27 66.6411,386.77 65.5,375.5C 46.4971,375.667 27.4971,375.5 8.5,375C 4.69966,373.358 1.69966,370.858 -0.5,367.5C -0.5,277.833 -0.5,188.167 -0.5,98.5C 1.25495,95.5147 3.58828,93.0147 6.5,91C 117.5,90.3333 228.5,90.3333 339.5,91C 343.058,92.8917 345.558,95.7251 347,99.5C 347.5,126.165 347.667,152.831 347.5,179.5C 374.169,179.333 400.835,179.5 427.5,180C 433.799,181.963 438.632,185.797 442,191.5C 445.15,199.26 446.817,207.26 447,215.5C 441.692,222.197 436.692,221.864 432,214.5C 430.667,209.833 429.333,205.167 428,200.5C 427.215,198.714 426.049,197.214 424.5,196C 398.835,195.5 373.169,195.333 347.5,195.5C 347.5,238.833 347.5,282.167 347.5,325.5C 357.839,325.666 368.172,325.5 378.5,325C 399.833,311 421.167,311 442.5,325C 450.159,325.5 457.826,325.666 465.5,325.5C 460.675,299.993 471.008,289.993 496.5,295.5C 497.115,291.04 496.115,287.04 493.5,283.5C 482.551,280.179 471.551,277.012 460.5,274C 447.822,267.816 441.989,257.65 443,243.5C 446.377,239.251 450.543,238.418 455.5,241C 457.915,245.242 459.749,249.742 461,254.5C 462.167,255.667 463.333,256.833 464.5,258C 475.066,261.309 485.733,264.309 496.5,267C 499.912,268.455 503.079,270.288 506,272.5C 508.374,275.263 510.208,278.263 511.5,281.5 Z M 15.5,105.5 C 120.833,105.5 226.167,105.5 331.5,105.5C 331.5,111.833 331.5,118.167 331.5,124.5C 322.827,124.334 314.16,124.5 305.5,125C 300.465,128.013 299.298,132.18 302,137.5C 303.171,138.893 304.671,139.727 306.5,140C 314.827,140.5 323.16,140.666 331.5,140.5C 331.5,203.5 331.5,266.5 331.5,329.5C 272.499,329.667 213.499,329.5 154.5,329C 129.833,309.667 105.167,309.667 80.5,329C 58.8359,329.5 37.1692,329.667 15.5,329.5C 15.5,266.5 15.5,203.5 15.5,140.5C 102.167,140.667 188.834,140.5 275.5,140C 281.448,137.567 282.948,133.4 280,127.5C 279.097,126.299 277.931,125.465 276.5,125C 189.501,124.5 102.501,124.333 15.5,124.5C 15.5,118.167 15.5,111.833 15.5,105.5 Z M 84.5,188.5 C 93.619,194.905 102.619,201.571 111.5,208.5C 112.499,222.484 112.833,236.484 112.5,250.5C 109.5,250.5 106.5,250.5 103.5,250.5C 103.666,242.493 103.5,234.493 103,226.5C 102.214,223.417 100.381,221.251 97.5,220C 89.5,219.333 81.5,219.333 73.5,220C 71.714,220.785 70.214,221.951 69,223.5C 67.5568,232.392 67.0568,241.392 67.5,250.5C 64.1667,250.5 60.8333,250.5 57.5,250.5C 57.3334,236.829 57.5001,223.163 58,209.5C 67.0204,202.636 75.8537,195.636 84.5,188.5 Z M 83.5,235.5 C 84.8333,235.5 86.1667,235.5 87.5,235.5C 87.5,240.5 87.5,245.5 87.5,250.5C 86.1667,250.5 84.8333,250.5 83.5,250.5C 83.5,245.5 83.5,240.5 83.5,235.5 Z M 481.5,311.5 C 486.5,311.5 491.5,311.5 496.5,311.5C 496.5,318.5 496.5,325.5 496.5,332.5C 491.5,332.5 486.5,332.5 481.5,332.5C 481.5,325.5 481.5,318.5 481.5,311.5 Z M 112.5,330.5 C 131.151,329.732 144.317,337.732 152,354.5C 157.748,376.171 150.581,392.004 130.5,402C 107.256,407.795 91.0895,399.628 82,377.5C 78.1392,352.524 88.3059,336.857 112.5,330.5 Z M 405.5,330.5 C 424.151,329.732 437.317,337.732 445,354.5C 450.748,376.171 443.581,392.004 423.5,402C 400.256,407.795 384.09,399.628 375,377.5C 371.139,352.524 381.306,336.857 405.5,330.5 Z M 347.5,341.5 C 353.176,341.334 358.843,341.501 364.5,342C 361.002,347.329 359.002,353.162 358.5,359.5C 354.833,359.5 351.167,359.5 347.5,359.5C 347.5,353.5 347.5,347.5 347.5,341.5 Z M 456.5,342.5 C 461.945,340.506 466.611,341.672 470.5,346C 472.087,346.862 473.754,347.529 475.5,348C 482.492,348.5 489.492,348.666 496.5,348.5C 496.665,351.518 496.498,354.518 496,357.5C 495.5,358 495,358.5 494.5,359C 483.839,359.5 473.172,359.667 462.5,359.5C 462.069,353.202 460.069,347.535 456.5,342.5 Z M 15.5,345.5 C 33.5031,345.333 51.5031,345.5 69.5,346C 67.1605,350.189 65.8271,354.689 65.5,359.5C 48.8333,359.5 32.1667,359.5 15.5,359.5C 15.5,354.833 15.5,350.167 15.5,345.5 Z M 165.5,346.5 C 220.664,345.501 275.997,345.168 331.5,345.5C 331.5,350.167 331.5,354.833 331.5,359.5C 293.832,359.333 256.165,359.5 218.5,360C 213.776,362.435 212.276,366.269 214,371.5C 215.167,372.667 216.333,373.833 217.5,375C 264.499,375.5 311.499,375.667 358.5,375.5C 359.641,386.77 364.308,396.27 372.5,404C 300.167,404.667 227.833,404.667 155.5,404C 163.692,396.27 168.359,386.77 169.5,375.5C 175.842,375.666 182.175,375.5 188.5,375C 193.535,371.987 194.702,367.82 192,362.5C 191.097,361.299 189.931,360.465 188.5,360C 182.175,359.5 175.842,359.334 169.5,359.5C 169.231,354.736 167.898,350.403 165.5,346.5 Z M 114.5,355.5 C 127.251,356.354 131.418,362.688 127,374.5C 118.366,382.005 111.366,380.671 106,370.5C 105.21,363.41 108.044,358.41 114.5,355.5 Z M 407.5,355.5 C 420.251,356.354 424.418,362.688 420,374.5C 411.366,382.005 404.366,380.671 399,370.5C 398.21,363.41 401.044,358.41 407.5,355.5 Z"/></g>
<g><path style="opacity:0.946" fill="#fff" d="M 84.5,171.5 C 89.2938,172.23 93.6271,174.063 97.5,177C 111.605,187.471 125.439,198.305 139,209.5C 141.278,218.624 137.778,222.624 128.5,221.5C 128.667,233.505 128.5,245.505 128,257.5C 126.928,261.573 124.428,264.407 120.5,266C 96.8333,266.667 73.1667,266.667 49.5,266C 46.6667,264.5 44.5,262.333 43,259.5C 42.5001,246.838 42.3334,234.171 42.5,221.5C 32.283,222.294 28.9497,217.961 32.5,208.5C 46.6902,197.142 61.0235,185.976 75.5,175C 78.4588,173.396 81.4588,172.229 84.5,171.5 Z M 84.5,188.5 C 75.8537,195.636 67.0204,202.636 58,209.5C 57.5001,223.163 57.3334,236.829 57.5,250.5C 60.8333,250.5 64.1667,250.5 67.5,250.5C 67.0568,241.392 67.5568,232.392 69,223.5C 70.214,221.951 71.714,220.785 73.5,220C 81.5,219.333 89.5,219.333 97.5,220C 100.381,221.251 102.214,223.417 103,226.5C 103.5,234.493 103.666,242.493 103.5,250.5C 106.5,250.5 109.5,250.5 112.5,250.5C 112.833,236.484 112.499,222.484 111.5,208.5C 102.619,201.571 93.619,194.905 84.5,188.5 Z M 83.5,235.5 C 83.5,240.5 83.5,245.5 83.5,250.5C 84.8333,250.5 86.1667,250.5 87.5,250.5C 87.5,245.5 87.5,240.5 87.5,235.5C 86.1667,235.5 84.8333,235.5 83.5,235.5 Z"/></g>
<g><path style="opacity:0.935" fill="#fff" d="M 358.5,199.5 C 378.503,199.333 398.503,199.5 418.5,200C 422.333,201.167 424.833,203.667 426,207.5C 430.511,223.212 435.178,238.879 440,254.5C 441.424,260.818 439.257,265.318 433.5,268C 408.5,268.667 383.5,268.667 358.5,268C 354.667,266.833 352.167,264.333 351,260.5C 350.333,242.833 350.333,225.167 351,207.5C 352.353,203.65 354.853,200.983 358.5,199.5 Z M 366.5,215.5 C 381.515,215.167 396.515,215.501 411.5,216.5C 415.012,228.214 418.678,239.88 422.5,251.5C 403.845,252.5 385.179,252.833 366.5,252.5C 366.5,240.167 366.5,227.833 366.5,215.5 Z"/></g>
<g><path style="opacity:0.919" fill="#fff" d="M 157.5,206.5 C 174.837,206.333 192.17,206.5 209.5,207C 215.098,209.695 216.598,213.862 214,219.5C 213.097,220.701 211.931,221.535 210.5,222C 192.5,222.667 174.5,222.667 156.5,222C 151.311,219.087 150.144,214.92 153,209.5C 154.409,208.219 155.909,207.219 157.5,206.5 Z"/></g>
<g><path style="opacity:0.931" fill="#fff" d="M 155.5,233.5 C 205.501,233.333 255.501,233.5 305.5,234C 309.753,237.42 310.587,241.587 308,246.5C 306.829,247.893 305.329,248.727 303.5,249C 254.833,249.667 206.167,249.667 157.5,249C 152.076,246.983 150.242,243.15 152,237.5C 153.376,236.295 154.542,234.962 155.5,233.5 Z"/></g>
<g><path style="opacity:0.899" fill="#fff" d="M 355.5,273.5 C 360.28,272.641 363.78,274.308 366,278.5C 366.667,287.5 366.667,296.5 366,305.5C 362.929,310.299 358.762,311.465 353.5,309C 352.299,308.097 351.465,306.931 351,305.5C 350.333,296.5 350.333,287.5 351,278.5C 352.025,276.313 353.525,274.646 355.5,273.5 Z"/></g>
<g><path style="opacity:0.92" fill="#fff" d="M 247.5,300.5 C 264.837,300.333 282.17,300.5 299.5,301C 303.277,303.955 304.443,307.788 303,312.5C 301.786,314.049 300.286,315.215 298.5,316C 281.833,316.667 265.167,316.667 248.5,316C 240.895,311.294 240.562,306.128 247.5,300.5 Z"/></g>
<g><path style="opacity:0.924" fill="#fff" d="M 111.5,339.5 C 129.331,337.653 140.497,345.32 145,362.5C 146.525,379.624 139.025,390.457 122.5,395C 105.376,396.525 94.5425,389.025 90,372.5C 88.6499,355.85 95.8165,344.85 111.5,339.5 Z M 114.5,355.5 C 108.044,358.41 105.21,363.41 106,370.5C 111.366,380.671 118.366,382.005 127,374.5C 131.418,362.688 127.251,356.354 114.5,355.5 Z"/></g>
<g><path style="opacity:0.924" fill="#fff" d="M 404.5,339.5 C 422.331,337.653 433.497,345.32 438,362.5C 439.525,379.624 432.025,390.457 415.5,395C 398.376,396.525 387.543,389.025 383,372.5C 381.65,355.85 388.817,344.85 404.5,339.5 Z M 407.5,355.5 C 401.044,358.41 398.21,363.41 399,370.5C 404.366,380.671 411.366,382.005 420,374.5C 424.418,362.688 420.251,356.354 407.5,355.5 Z"/></g>
</svg>
