<?xml version="1.0" standalone="no"?>
<!DOCTYPE svg PUBLIC "-//W3C//DTD SVG 20010904//EN"
 "http://www.w3.org/TR/2001/REC-SVG-20010904/DTD/svg10.dtd">
<svg version="1.0" xmlns="http://www.w3.org/2000/svg"
 width="50.000000pt" height="50.000000pt" viewBox="0 0 50.000000 50.000000"
 preserveAspectRatio="xMidYMid meet">

<g transform="translate(0.000000,50.000000) scale(0.100000,-0.100000)"
fill="#fff" stroke="none">
<path d="M70 455 c0 -20 -5 -25 -25 -25 l-25 0 0 -195 0 -195 60 0 c33 0 60 4
60 10 0 6 -22 10 -50 10 l-50 0 0 175 0 175 25 0 c20 0 25 5 25 25 l0 25 100
0 c82 0 100 -3 100 -15 0 -12 -17 -15 -90 -15 -53 0 -90 -4 -90 -10 0 -6 45
-10 115 -10 l115 0 0 -55 c0 -30 5 -55 10 -55 6 0 10 28 10 65 0 63 -1 65 -25
65 -20 0 -25 5 -25 25 l0 25 -120 0 -120 0 0 -25z"/>
<path d="M80 370 c0 -5 9 -10 20 -10 11 0 20 5 20 10 0 6 -9 10 -20 10 -11 0
-20 -4 -20 -10z"/>
<path d="M170 370 c0 -5 9 -10 20 -10 11 0 20 5 20 10 0 6 -9 10 -20 10 -11 0
-20 -4 -20 -10z"/>
<path d="M260 370 c0 -5 9 -10 20 -10 11 0 20 5 20 10 0 6 -9 10 -20 10 -11 0
-20 -4 -20 -10z"/>
<path d="M80 320 c0 -5 9 -10 20 -10 11 0 20 5 20 10 0 6 -9 10 -20 10 -11 0
-20 -4 -20 -10z"/>
<path d="M170 320 c0 -5 9 -10 20 -10 11 0 20 5 20 10 0 6 -9 10 -20 10 -11 0
-20 -4 -20 -10z"/>
<path d="M260 320 c0 -5 9 -10 20 -10 11 0 20 5 20 10 0 6 -9 10 -20 10 -11 0
-20 -4 -20 -10z"/>
<path d="M235 275 c-30 -29 -32 -69 -7 -121 16 -35 16 -37 -2 -48 -44 -26 -66
-49 -66 -67 0 -18 9 -19 160 -19 107 0 160 4 160 11 0 23 -21 47 -50 59 -27
11 -31 17 -25 39 4 14 9 47 12 72 4 41 2 47 -22 63 -15 10 -35 16 -46 13 -10
-3 -26 1 -36 9 -27 20 -51 17 -78 -11z m70 -8 c15 -12 17 -22 11 -63 -15 -96
-13 -107 15 -121 15 -7 32 -20 39 -28 11 -13 0 -15 -90 -15 -90 0 -101 2 -90
15 7 8 24 21 39 28 29 14 39 50 20 73 -20 24 -22 84 -3 105 20 22 34 24 59 6z
m80 -20 c18 -14 18 -21 -1 -123 -5 -28 -2 -33 30 -48 45 -21 54 -36 22 -36
-13 0 -37 12 -53 28 -16 15 -38 32 -48 38 -18 10 -19 15 -7 46 6 19 12 48 12
65 0 44 13 53 45 30z"/>
<path d="M80 270 c0 -5 9 -10 20 -10 11 0 20 5 20 10 0 6 -9 10 -20 10 -11 0
-20 -4 -20 -10z"/>
<path d="M170 270 c0 -5 7 -10 15 -10 8 0 15 5 15 10 0 6 -7 10 -15 10 -8 0
-15 -4 -15 -10z"/>
<path d="M80 220 c0 -5 9 -10 20 -10 11 0 20 5 20 10 0 6 -9 10 -20 10 -11 0
-20 -4 -20 -10z"/>
<path d="M170 220 c0 -5 7 -10 16 -10 8 0 12 5 9 10 -3 6 -10 10 -16 10 -5 0
-9 -4 -9 -10z"/>
<path d="M80 170 c0 -5 9 -10 20 -10 11 0 20 5 20 10 0 6 -9 10 -20 10 -11 0
-20 -4 -20 -10z"/>
<path d="M170 170 c0 -5 7 -10 15 -10 8 0 15 5 15 10 0 6 -7 10 -15 10 -8 0
-15 -4 -15 -10z"/>
<path d="M80 120 c0 -5 9 -10 20 -10 11 0 20 5 20 10 0 6 -9 10 -20 10 -11 0
-20 -4 -20 -10z"/>
<path d="M170 120 c0 -5 9 -10 20 -10 11 0 20 5 20 10 0 6 -9 10 -20 10 -11 0
-20 -4 -20 -10z"/>
</g>
</svg>
