<?xml version="1.0" standalone="no"?>
<!DOCTYPE svg PUBLIC "-//W3C//DTD SVG 20010904//EN"
 "http://www.w3.org/TR/2001/REC-SVG-20010904/DTD/svg10.dtd">
<svg version="1.0" xmlns="http://www.w3.org/2000/svg"
 width="50.000000pt" height="50.000000pt" viewBox="0 0 50.000000 50.000000"
 preserveAspectRatio="xMidYMid meet">

<g transform="translate(0.000000,50.000000) scale(0.100000,-0.100000)"
fill="#fff" stroke="none">
<path d="M133 433 l-103 -35 0 -184 0 -184 220 0 220 0 0 184 0 184 -108 36
c-59 20 -112 36 -117 35 -6 0 -56 -16 -112 -36z m229 -22 l83 -28 3 -166 c2
-162 2 -167 -18 -167 -19 0 -20 6 -20 145 l0 145 -160 0 -160 0 0 -145 c0
-139 -1 -145 -20 -145 -20 0 -20 5 -18 167 l3 166 95 33 c52 18 103 30 112 28
9 -3 54 -17 100 -33z m28 -226 c0 -113 -2 -135 -15 -135 -11 0 -15 12 -15 50
0 47 -2 50 -25 50 -23 0 -25 3 -25 50 l0 50 -60 0 -60 0 0 -50 c0 -47 -2 -50
-25 -50 -23 0 -25 -3 -25 -50 0 -38 -4 -50 -15 -50 -13 0 -15 22 -15 135 l0
135 140 0 140 0 0 -135z m-100 5 l0 -40 -40 0 -40 0 0 40 0 40 40 0 40 0 0
-40z m-50 -100 l0 -40 -40 0 -40 0 0 40 0 40 40 0 40 0 0 -40z m100 0 l0 -40
-40 0 -40 0 0 40 0 40 40 0 40 0 0 -40z"/>
</g>
</svg>
