<?xml version="1.0" standalone="no"?>
<!DOCTYPE svg PUBLIC "-//W3C//DTD SVG 20010904//EN"
 "http://www.w3.org/TR/2001/REC-SVG-20010904/DTD/svg10.dtd">
<svg version="1.0" xmlns="http://www.w3.org/2000/svg"
 width="50.000000pt" height="50.000000pt" viewBox="0 0 50.000000 50.000000"
 preserveAspectRatio="xMidYMid meet">

<g transform="translate(0.000000,50.000000) scale(0.100000,-0.100000)"
fill="#fff" stroke="none">
<path d="M67 494 c-4 -4 -7 -117 -7 -251 l0 -243 190 0 190 0 -2 247 -3 248
-181 3 c-99 1 -183 -1 -187 -4z m353 -244 c0 -223 -1 -230 -20 -230 -18 0 -20
7 -20 60 l0 60 -55 0 -55 0 0 -60 0 -60 -95 0 -95 0 0 230 0 230 170 0 170 0
0 -230z m-60 -180 l0 -50 -35 0 -35 0 0 50 0 50 35 0 35 0 0 -50z"/>
<path d="M120 400 l0 -40 55 0 55 0 0 40 0 40 -55 0 -55 0 0 -40z m90 0 c0
-16 -7 -20 -35 -20 -28 0 -35 4 -35 20 0 16 7 20 35 20 28 0 35 -4 35 -20z"/>
<path d="M270 400 l0 -40 55 0 55 0 0 40 0 40 -55 0 -55 0 0 -40z m90 0 c0
-16 -7 -20 -35 -20 -28 0 -35 4 -35 20 0 16 7 20 35 20 28 0 35 -4 35 -20z"/>
<path d="M120 300 l0 -40 55 0 55 0 0 40 0 40 -55 0 -55 0 0 -40z m90 0 c0
-16 -7 -20 -35 -20 -28 0 -35 4 -35 20 0 16 7 20 35 20 28 0 35 -4 35 -20z"/>
<path d="M270 300 l0 -40 55 0 55 0 0 40 0 40 -55 0 -55 0 0 -40z m90 0 c0
-16 -7 -20 -35 -20 -28 0 -35 4 -35 20 0 16 7 20 35 20 28 0 35 -4 35 -20z"/>
<path d="M120 200 l0 -40 55 0 55 0 0 40 0 40 -55 0 -55 0 0 -40z m90 0 c0
-16 -7 -20 -35 -20 -28 0 -35 4 -35 20 0 16 7 20 35 20 28 0 35 -4 35 -20z"/>
<path d="M270 200 l0 -40 55 0 55 0 0 40 0 40 -55 0 -55 0 0 -40z m90 0 c0
-16 -7 -20 -35 -20 -28 0 -35 4 -35 20 0 16 7 20 35 20 28 0 35 -4 35 -20z"/>
<path d="M120 100 l0 -40 55 0 55 0 0 40 0 40 -55 0 -55 0 0 -40z m90 0 c0
-16 -7 -20 -35 -20 -28 0 -35 4 -35 20 0 16 7 20 35 20 28 0 35 -4 35 -20z"/>
</g>
</svg>
