<?xml version="1.0" encoding="UTF-8"?>
<!DOCTYPE svg PUBLIC "-//W3C//DTD SVG 1.1//EN" "http://www.w3.org/Graphics/SVG/1.1/DTD/svg11.dtd">
<svg xmlns="http://www.w3.org/2000/svg" version="1.1" width="58px" height="58px" style="shape-rendering:geometricPrecision; text-rendering:geometricPrecision; image-rendering:optimizeQuality; fill-rule:evenodd; clip-rule:evenodd" xmlns:xlink="http://www.w3.org/1999/xlink">
<g><path style="opacity:0.969" fill="#f0f4fc" d="M 29.5,-0.5 C 31.1667,-0.5 32.8333,-0.5 34.5,-0.5C 37.9642,2.77644 41.9642,5.10977 46.5,6.5C 46.2942,8.54921 45.4609,8.88254 44,7.5C 43.3333,8.16667 42.6667,8.83333 42,9.5C 41.4948,11.8441 40.9948,14.5108 40.5,17.5C 39.8333,17.5 39.5,17.8333 39.5,18.5C 36.272,17.5863 32.9387,17.2529 29.5,17.5C 29.5,14.8333 29.5,12.1667 29.5,9.5C 33.4815,6.21353 33.4815,2.8802 29.5,-0.5 Z"/></g>
<g><path style="opacity:0.974" fill="#f0f3fa" d="M 22.5,0.5 C 21.9566,1.74213 21.6233,3.07546 21.5,4.5C 23.1811,8.60145 23.8478,12.9348 23.5,17.5C 21.5,17.5 19.5,17.5 17.5,17.5C 16.7279,13.5483 16.3946,9.5483 16.5,5.5C 17.4013,4.70951 18.0679,3.70951 18.5,2.5C 19.5137,1.32627 20.847,0.659599 22.5,0.5 Z"/></g>
<g><path style="opacity:1" fill="#897a94" d="M 22.5,-0.5 C 23.5,-0.5 24.5,-0.5 25.5,-0.5C 25.5,1.16667 25.5,2.83333 25.5,4.5C 26.5,4.5 27.5,4.5 28.5,4.5C 28.5,2.83333 28.5,1.16667 28.5,-0.5C 28.8333,-0.5 29.1667,-0.5 29.5,-0.5C 33.4815,2.8802 33.4815,6.21353 29.5,9.5C 29.5,9.16667 29.5,8.83333 29.5,8.5C 30.6592,3.88153 30.6592,2.88153 29.5,5.5C 26.9208,5.91668 24.7542,5.25001 23,3.5C 22.2784,5.66135 22.9451,7.32802 25,8.5C 25.8163,13.6842 25.6497,18.6842 24.5,23.5C 24.7947,21.2646 24.4614,19.2646 23.5,17.5C 23.8478,12.9348 23.1811,8.60145 21.5,4.5C 21.6233,3.07546 21.9566,1.74213 22.5,0.5C 22.5,0.166667 22.5,-0.166667 22.5,-0.5 Z"/></g>
<g><path style="opacity:0.971" fill="#f2f6fc" d="M 25.5,-0.5 C 26.5,-0.5 27.5,-0.5 28.5,-0.5C 28.5,1.16667 28.5,2.83333 28.5,4.5C 27.5,4.5 26.5,4.5 25.5,4.5C 25.5,2.83333 25.5,1.16667 25.5,-0.5 Z"/></g>
<g><path style="opacity:0.914" fill="#f1f3fa" d="M 11.5,6.5 C 12.1558,7.62159 12.4892,8.95492 12.5,10.5C 11.9789,12.9241 11.3123,15.2574 10.5,17.5C 7.9407,17.1984 5.60737,17.5318 3.5,18.5C 2.88258,18.6107 2.38258,18.944 2,19.5C 1.50029,27.4931 1.33362,35.4931 1.5,43.5C 0.833333,42.8333 0.166667,42.1667 -0.5,41.5C -0.5,37.8333 -0.5,34.1667 -0.5,30.5C 0.833333,29.1667 0.833333,27.8333 -0.5,26.5C -0.5,22.8333 -0.5,19.1667 -0.5,15.5C 1.78851,10.2107 5.78851,7.21074 11.5,6.5 Z"/></g>
<g><path style="opacity:1" fill="#f68d87" d="M 29.5,8.5 C 28.8362,10.8097 28.5029,13.3097 28.5,16C 28.5611,20.3695 29.0611,24.5362 30,28.5C 25.64,31.3492 23.4734,30.0159 23.5,24.5C 23.5,23.8333 23.8333,23.5 24.5,23.5C 25.6497,18.6842 25.8163,13.6842 25,8.5C 22.9451,7.32802 22.2784,5.66135 23,3.5C 24.7542,5.25001 26.9208,5.91668 29.5,5.5C 30.6592,2.88153 30.6592,3.88153 29.5,8.5 Z"/></g>
<g><path style="opacity:1" fill="#c7c4d1" d="M 57.5,12.5 C 57.5,14.1667 57.5,15.8333 57.5,17.5C 55.9147,18.4737 54.9147,19.9737 54.5,22C 53.451,22.4922 52.451,22.3256 51.5,21.5C 49.5,24.1667 47.5,24.1667 45.5,21.5C 43.6783,22.4286 42.3449,21.7619 41.5,19.5C 42.981,18.056 42.6477,17.3894 40.5,17.5C 40.9948,14.5108 41.4948,11.8441 42,9.5C 42.6667,8.83333 43.3333,8.16667 44,7.5C 45.4609,8.88254 46.2942,8.54921 46.5,6.5C 47.0968,5.86137 47.9302,5.52804 49,5.5C 51.1181,6.47637 53.2848,7.3097 55.5,8C 56.8333,9.33333 56.8333,10.6667 55.5,12C 56.0944,12.4643 56.7611,12.631 57.5,12.5 Z"/></g>
<g><path style="opacity:1" fill="#f0cbcc" d="M 47.5,7.5 C 49.7117,8.64522 52.045,9.64522 54.5,10.5C 53.7176,12.3293 54.3843,13.8293 56.5,15C 54.3843,16.1707 53.7176,17.6707 54.5,19.5C 52.3113,20.1735 50.3113,21.1735 48.5,22.5C 47.1585,20.9951 45.4918,20.3285 43.5,20.5C 43.5514,18.4305 42.8847,16.5971 41.5,15C 42.8847,13.4029 43.5514,11.5695 43.5,9.5C 45.4832,9.84316 46.8166,9.17649 47.5,7.5 Z"/></g>
<g><path style="opacity:1" fill="#f8f8fa" d="M 47.5,12.5 C 51.1612,12.3501 52.1612,13.8501 50.5,17C 46.7071,17.4866 45.7071,15.9866 47.5,12.5 Z"/></g>
<g><path style="opacity:1" fill="#616184" d="M 11.5,-0.5 C 13.1667,-0.5 14.8333,-0.5 16.5,-0.5C 16.9321,0.709515 17.5987,1.70951 18.5,2.5C 18.0679,3.70951 17.4013,4.70951 16.5,5.5C 16.3946,9.5483 16.7279,13.5483 17.5,17.5C 19.5,17.5 21.5,17.5 23.5,17.5C 24.4614,19.2646 24.7947,21.2646 24.5,23.5C 23.8333,23.5 23.5,23.8333 23.5,24.5C 23.1667,24.5 22.8333,24.5 22.5,24.5C 21.8166,22.8235 20.4832,22.1568 18.5,22.5C 18.6641,25.1873 18.4974,27.854 18,30.5C 15.7265,31.8112 13.5598,31.8112 11.5,30.5C 10.5269,28.0521 10.1936,25.3854 10.5,22.5C 9.16667,22.5 7.83333,22.5 6.5,22.5C 6.5,29.1667 6.5,35.8333 6.5,42.5C 6.5,43.1667 6.16667,43.5 5.5,43.5C 5.5,36.1667 5.5,28.8333 5.5,21.5C 7.16667,21.5 8.83333,21.5 10.5,21.5C 10.5,20.5 10.5,19.5 10.5,18.5C 8.16667,18.5 5.83333,18.5 3.5,18.5C 5.60737,17.5318 7.9407,17.1984 10.5,17.5C 11.3123,15.2574 11.9789,12.9241 12.5,10.5C 12.4892,8.95492 12.1558,7.62159 11.5,6.5C 10.3139,4.20778 10.3139,1.87444 11.5,-0.5 Z"/></g>
<g><path style="opacity:1" fill="#bdb8df" d="M 12.5,15.5 C 13.8333,15.5 15.1667,15.5 16.5,15.5C 16.5,16.5 16.5,17.5 16.5,18.5C 15.1667,18.5 13.8333,18.5 12.5,18.5C 12.5,17.5 12.5,16.5 12.5,15.5 Z"/></g>
<g><path style="opacity:1" fill="#eeebe3" d="M 16.5,5.5 C 15.834,8.35828 15.1674,11.3583 14.5,14.5C 13.688,10.8574 13.0214,7.19072 12.5,3.5C 12.4528,1.99962 13.1195,0.999625 14.5,0.5C 15.9501,1.84983 16.6168,3.5165 16.5,5.5 Z"/></g>
<g><path style="opacity:0.964" fill="#f1f5fc" d="M 40.5,17.5 C 42.6477,17.3894 42.981,18.056 41.5,19.5C 42.3449,21.7619 43.6783,22.4286 45.5,21.5C 47.5,24.1667 49.5,24.1667 51.5,21.5C 52.451,22.3256 53.451,22.4922 54.5,22C 54.9147,19.9737 55.9147,18.4737 57.5,17.5C 57.5,20.5 57.5,23.5 57.5,26.5C 56.1667,27.8333 56.1667,29.1667 57.5,30.5C 57.5,33.1667 57.5,35.8333 57.5,38.5C 56.1667,38.5 54.8333,38.5 53.5,38.5C 53.5,37.1667 53.5,35.8333 53.5,34.5C 54.8872,31.8145 53.8872,30.1479 50.5,29.5C 48.9291,30.3094 47.2624,30.6427 45.5,30.5C 45.5,29.1667 45.5,27.8333 45.5,26.5C 43.5,26.5 41.5,26.5 39.5,26.5C 39.5,23.8333 39.5,21.1667 39.5,18.5C 39.5,17.8333 39.8333,17.5 40.5,17.5 Z"/></g>
<g><path style="opacity:1" fill="#8db1ed" d="M 18.5,18.5 C 20.1667,18.5 21.8333,18.5 23.5,18.5C 23.5,19.5 23.5,20.5 23.5,21.5C 21.8333,21.5 20.1667,21.5 18.5,21.5C 18.5,20.5 18.5,19.5 18.5,18.5 Z"/></g>
<g><path style="opacity:1" fill="#a395cf" d="M 11.5,30.5 C 11.5,26.8333 11.5,23.1667 11.5,19.5C 13.5,19.5 15.5,19.5 17.5,19.5C 17.665,22.8499 17.4983,26.1832 17,29.5C 15.3005,30.4061 13.4672,30.7394 11.5,30.5 Z"/></g>
<g><path style="opacity:1" fill="#96bbf4" d="M 3.5,18.5 C 5.83333,18.5 8.16667,18.5 10.5,18.5C 10.5,19.5 10.5,20.5 10.5,21.5C 8.83333,21.5 7.16667,21.5 5.5,21.5C 5.5,28.8333 5.5,36.1667 5.5,43.5C 13.6804,44.291 22.0137,44.9576 30.5,45.5C 21.3483,46.4936 12.015,46.8269 2.5,46.5C 2.22007,37.1136 2.55341,27.7803 3.5,18.5 Z"/></g>
<g><path style="opacity:1" fill="#eaeaeb" d="M 11.5,30.5 C 13.5598,31.8112 15.7265,31.8112 18,30.5C 18.4974,27.854 18.6641,25.1873 18.5,22.5C 20.4832,22.1568 21.8166,22.8235 22.5,24.5C 21.5282,29.5356 23.8615,31.869 29.5,31.5C 29.9926,33.8056 30.3259,36.139 30.5,38.5C 29.1667,38.5 27.8333,38.5 26.5,38.5C 26.5,39.8333 26.5,41.1667 26.5,42.5C 19.8333,42.5 13.1667,42.5 6.5,42.5C 6.5,35.8333 6.5,29.1667 6.5,22.5C 7.83333,22.5 9.16667,22.5 10.5,22.5C 10.1936,25.3854 10.5269,28.0521 11.5,30.5 Z"/></g>
<g><path style="opacity:1" fill="#afe6a9" d="M 53.5,34.5 C 52.5222,34.811 51.8555,35.4777 51.5,36.5C 52.3697,38.5259 53.8697,39.8592 56,40.5C 56.49,41.7932 56.6567,43.1266 56.5,44.5C 54.6096,44.2965 53.1096,44.9632 52,46.5C 52.3333,48.1667 52.6667,49.8333 53,51.5C 52.3109,52.3567 51.4776,53.0233 50.5,53.5C 46.883,50.7424 44.883,51.7424 44.5,56.5C 42.8333,56.5 41.1667,56.5 39.5,56.5C 39.8174,53.4535 38.4841,51.7868 35.5,51.5C 34.5,51.5 33.5,51.5 32.5,51.5C 33.1856,47.6789 32.1856,44.5122 29.5,42C 30.0556,40.9889 30.7222,40.1556 31.5,39.5C 32.3552,37.2132 32.5218,34.8799 32,32.5C 34.1623,32.0598 36.329,31.7265 38.5,31.5C 39.4287,30.3112 39.762,28.9778 39.5,27.5C 40.8734,27.3433 42.2068,27.51 43.5,28C 44.1408,30.1303 45.4741,31.6303 47.5,32.5C 50.505,30.7413 52.505,31.4079 53.5,34.5 Z"/></g>
<g><path style="opacity:1" fill="#9393aa" d="M 8.5,32.5 C 9.64911,32.7911 10.3158,33.6244 10.5,35C 10.1667,35.8333 9.83333,36.6667 9.5,37.5C 8.54811,35.9547 8.21478,34.288 8.5,32.5 Z"/></g>
<g><path style="opacity:1" fill="#eaeaeb" d="M 47.5,36.5 C 48.8333,40.1667 48.8333,43.8333 47.5,47.5C 43.8333,48.8333 40.1667,48.8333 36.5,47.5C 33.8333,37.5 37.5,33.8333 47.5,36.5 Z"/></g>
<g><path style="opacity:1" fill="#80849a" d="M 47.5,36.5 C 37.5,33.8333 33.8333,37.5 36.5,47.5C 33.2392,44.6796 32.7392,41.3463 35,37.5C 38.9919,32.7203 43.1586,32.387 47.5,36.5 Z"/></g>
<g><path style="opacity:1" fill="#71728f" d="M 39.5,38.5 C 45.1581,37.6794 46.8248,39.846 44.5,45C 38.741,46.1387 37.0744,43.972 39.5,38.5 Z"/></g>
<g><path style="opacity:1" fill="#b4e4b0" d="M 40.5,39.5 C 44.1612,39.3501 45.1612,40.8501 43.5,44C 39.7071,44.4866 38.7071,42.9866 40.5,39.5 Z"/></g>
<g><path style="opacity:1" fill="#7c8296" d="M 47.5,36.5 C 51.5,40.1667 51.5,43.8333 47.5,47.5C 48.8333,43.8333 48.8333,40.1667 47.5,36.5 Z"/></g>
<g><path style="opacity:1" fill="#75799a" d="M 29.5,8.5 C 29.5,8.83333 29.5,9.16667 29.5,9.5C 29.5,12.1667 29.5,14.8333 29.5,17.5C 32.9387,17.2529 36.272,17.5863 39.5,18.5C 39.5,21.1667 39.5,23.8333 39.5,26.5C 41.5,26.5 43.5,26.5 45.5,26.5C 45.5,27.8333 45.5,29.1667 45.5,30.5C 47.2624,30.6427 48.9291,30.3094 50.5,29.5C 53.8872,30.1479 54.8872,31.8145 53.5,34.5C 52.505,31.4079 50.505,30.7413 47.5,32.5C 45.4741,31.6303 44.1408,30.1303 43.5,28C 42.2068,27.51 40.8734,27.3433 39.5,27.5C 39.762,28.9778 39.4287,30.3112 38.5,31.5C 36.329,31.7265 34.1623,32.0598 32,32.5C 32.5218,34.8799 32.3552,37.2132 31.5,39.5C 26.5684,40.64 26.2351,42.64 30.5,45.5C 22.0137,44.9576 13.6804,44.291 5.5,43.5C 6.16667,43.5 6.5,43.1667 6.5,42.5C 13.1667,42.5 19.8333,42.5 26.5,42.5C 26.5,41.1667 26.5,39.8333 26.5,38.5C 27.8333,38.5 29.1667,38.5 30.5,38.5C 30.3259,36.139 29.9926,33.8056 29.5,31.5C 23.8615,31.869 21.5282,29.5356 22.5,24.5C 22.8333,24.5 23.1667,24.5 23.5,24.5C 23.4734,30.0159 25.64,31.3492 30,28.5C 29.0611,24.5362 28.5611,20.3695 28.5,16C 28.5029,13.3097 28.8362,10.8097 29.5,8.5 Z"/></g>
<g><path style="opacity:1" fill="#fff0ef" d="M 25.5,25.5 C 26.675,25.281 27.675,25.6143 28.5,26.5C 26.9483,27.7979 25.9483,27.4646 25.5,25.5 Z"/></g>
<g><path style="opacity:1" fill="#e5e5e7" d="M 30.5,23.5 C 31.5676,22.5655 32.901,22.2322 34.5,22.5C 34.5,24.8333 34.5,27.1667 34.5,29.5C 33.5,29.5 32.5,29.5 31.5,29.5C 31.7947,27.2646 31.4614,25.2646 30.5,23.5 Z"/></g>
<g><path style="opacity:1" fill="#8eb2ee" d="M 29.5,18.5 C 32.4475,18.2229 35.2809,18.5562 38,19.5C 38.4986,23.1516 38.6653,26.8183 38.5,30.5C 37.5,30.5 36.5,30.5 35.5,30.5C 35.5,27.5 35.5,24.5 35.5,21.5C 33.5,21.5 31.5,21.5 29.5,21.5C 29.5,20.5 29.5,19.5 29.5,18.5 Z"/></g>
<g><path style="opacity:1" fill="#c4ddc4" d="M 31.5,39.5 C 30.7222,40.1556 30.0556,40.9889 29.5,42C 32.1856,44.5122 33.1856,47.6789 32.5,51.5C 33.5,51.5 34.5,51.5 35.5,51.5C 34.4324,52.4345 33.099,52.7678 31.5,52.5C 30.8902,51.609 30.5569,50.609 30.5,49.5C 31.8333,48.1667 31.8333,46.8333 30.5,45.5C 26.2351,42.64 26.5684,40.64 31.5,39.5 Z"/></g>
<g><path style="opacity:1" fill="#868a9e" d="M 36.5,47.5 C 40.1667,48.8333 43.8333,48.8333 47.5,47.5C 43.8333,51.5 40.1667,51.5 36.5,47.5 Z"/></g>
<g><path style="opacity:0.747" fill="#606286" d="M 3.5,18.5 C 2.55341,27.7803 2.22007,37.1136 2.5,46.5C 12.015,46.8269 21.3483,46.4936 30.5,45.5C 31.8333,46.8333 31.8333,48.1667 30.5,49.5C 30.5569,50.609 30.8902,51.609 31.5,52.5C 26.6367,52.1805 21.97,52.5139 17.5,53.5C 11.4406,53.7461 5.44064,53.4128 -0.5,52.5C -0.5,50.5 -0.5,48.5 -0.5,46.5C 1.04814,46.1788 1.71481,45.1788 1.5,43.5C 1.33362,35.4931 1.50029,27.4931 2,19.5C 2.38258,18.944 2.88258,18.6107 3.5,18.5 Z"/></g>
<g><path style="opacity:1" fill="#cce2fe" d="M 29.5,49.5 C 25.2175,50.8266 20.5508,51.4933 15.5,51.5C 10.6543,51.4992 5.98762,51.1659 1.5,50.5C 5.78251,49.1734 10.4492,48.5067 15.5,48.5C 20.3457,48.5008 25.0124,48.8341 29.5,49.5 Z"/></g>
<g><path style="opacity:1" fill="#a7b6d3" d="M 30.5,49.5 C 30.1667,49.5 29.8333,49.5 29.5,49.5C 25.0124,48.8341 20.3457,48.5008 15.5,48.5C 10.4492,48.5067 5.78251,49.1734 1.5,50.5C 0.596028,49.791 0.262695,48.791 0.5,47.5C 10.8893,46.859 20.8893,47.5257 30.5,49.5 Z"/></g>
<g><path style="opacity:0.933" fill="#e3e7f0" d="M 31.5,52.5 C 32.3402,54.7856 33.8402,55.119 36,53.5C 37.0299,53.8361 37.5299,54.5028 37.5,55.5C 36.2905,55.9321 35.2905,56.5987 34.5,57.5C 30.5,57.5 26.5,57.5 22.5,57.5C 22.5,57.1667 22.5,56.8333 22.5,56.5C 23.552,56.6495 24.552,56.4828 25.5,56C 22.7934,55.6049 20.1267,55.1049 17.5,54.5C 17.5,54.1667 17.5,53.8333 17.5,53.5C 21.97,52.5139 26.6367,52.1805 31.5,52.5 Z"/></g>
<g><path style="opacity:0.634" fill="#5c5c81" d="M 17.5,54.5 C 20.1267,55.1049 22.7934,55.6049 25.5,56C 24.552,56.4828 23.552,56.6495 22.5,56.5C 20.076,56.8076 17.7427,56.4742 15.5,55.5C 15.9569,54.7025 16.6236,54.3691 17.5,54.5 Z"/></g>
<g><path style="opacity:0.846" fill="#646684" d="M 53.5,34.5 C 53.5,35.8333 53.5,37.1667 53.5,38.5C 54.8333,38.5 56.1667,38.5 57.5,38.5C 57.5,40.8333 57.5,43.1667 57.5,45.5C 55.8042,45.6854 54.4709,46.5187 53.5,48C 55.0074,48.8373 55.5074,50.0039 55,51.5C 53.6487,53.019 52.1487,54.3523 50.5,55.5C 47.7985,53.8414 46.1319,54.5081 45.5,57.5C 43.1667,57.5 40.8333,57.5 38.5,57.5C 38.6716,56.5084 38.3382,55.8417 37.5,55.5C 37.5299,54.5028 37.0299,53.8361 36,53.5C 33.8402,55.119 32.3402,54.7856 31.5,52.5C 33.099,52.7678 34.4324,52.4345 35.5,51.5C 38.4841,51.7868 39.8174,53.4535 39.5,56.5C 41.1667,56.5 42.8333,56.5 44.5,56.5C 44.883,51.7424 46.883,50.7424 50.5,53.5C 51.4776,53.0233 52.3109,52.3567 53,51.5C 52.6667,49.8333 52.3333,48.1667 52,46.5C 53.1096,44.9632 54.6096,44.2965 56.5,44.5C 56.6567,43.1266 56.49,41.7932 56,40.5C 53.8697,39.8592 52.3697,38.5259 51.5,36.5C 51.8555,35.4777 52.5222,34.811 53.5,34.5 Z"/></g>
</svg>
