<?xml version="1.0" standalone="no"?>
<!DOCTYPE svg PUBLIC "-//W3C//DTD SVG 20010904//EN"
 "http://www.w3.org/TR/2001/REC-SVG-20010904/DTD/svg10.dtd">
<svg version="1.0" xmlns="http://www.w3.org/2000/svg"
 width="100.000000pt" height="100.000000pt" viewBox="0 0 100.000000 100.000000"
 preserveAspectRatio="xMidYMid meet">

<g transform="translate(0.000000,100.000000) scale(0.100000,-0.100000)"
fill="#AB8F45" stroke="none">
<path d="M307 954 c-4 -4 -7 -58 -7 -121 l0 -113 -32 0 c-102 -1 -208 -113
-208 -220 0 -107 106 -219 208 -220 l32 0 0 -105 0 -104 30 -16 c23 -12 35
-13 50 -5 14 8 26 8 40 0 14 -8 26 -8 40 0 14 8 26 8 40 0 14 -8 26 -8 40 0
14 8 26 8 40 0 14 -8 26 -8 40 0 14 8 26 8 40 0 14 -8 26 -8 40 0 14 8 26 8
40 0 14 -8 26 -8 40 0 14 8 26 8 40 0 15 -8 27 -7 50 5 l30 16 -2 442 c-3 436
-3 442 -23 439 -11 -2 -28 -3 -37 -3 -10 1 -27 1 -38 1 -11 0 -29 0 -40 0 -11
0 -29 0 -40 0 -11 0 -29 0 -40 0 -11 0 -29 0 -40 0 -11 0 -29 0 -40 0 -11 0
-29 0 -40 0 -11 0 -29 0 -40 0 -11 0 -29 0 -40 0 -11 0 -29 0 -40 0 -11 0 -29
0 -40 0 -11 0 -28 -1 -37 -1 -10 -1 -25 1 -34 5 -8 4 -18 3 -22 0z m136 -45
c9 0 26 1 37 1 11 0 29 0 40 0 11 0 29 0 40 0 11 0 29 0 40 0 11 0 29 0 40 0
11 0 29 0 40 0 11 0 29 0 40 0 11 0 29 0 40 0 11 0 29 0 40 0 66 0 61 41 58
-415 -3 -404 -3 -410 -23 -407 -11 2 -28 3 -37 3 -10 -1 -27 -1 -38 -1 -11 0
-29 0 -40 0 -11 0 -29 0 -40 0 -11 0 -29 0 -40 0 -11 0 -29 0 -40 0 -11 0 -29
0 -40 0 -11 0 -29 0 -40 0 -11 0 -29 0 -40 0 -11 0 -29 0 -40 0 -11 0 -28 0
-37 1 -10 0 -27 -1 -38 -3 -19 -3 -20 3 -23 98 l-3 101 32 13 c18 8 47 28 65
46 24 25 42 33 76 36 54 4 61 31 10 36 -29 3 -33 6 -28 25 3 12 6 30 6 39 0
14 12 18 68 20 52 2 67 6 67 18 0 12 -15 16 -68 18 -67 3 -67 3 -82 39 -8 19
-15 37 -15 39 0 1 19 4 43 6 29 2 42 8 42 18 0 11 -14 16 -55 17 -37 2 -72 12
-107 30 l-53 28 0 98 c0 62 4 96 10 92 5 -3 18 -1 27 4 10 6 25 8 33 4 8 -3
23 -5 33 -4z m-83 -251 c132 -67 132 -249 0 -316 -56 -28 -104 -28 -160 1
-132 66 -132 248 0 315 24 12 60 22 80 22 20 0 56 -10 80 -22z"/>
<path d="M405 769 c-15 -23 15 -30 121 -27 89 2 109 6 109 18 0 12 -20 16
-112 18 -74 2 -114 -1 -118 -9z"/>
<path d="M725 770 c-11 -18 10 -32 41 -28 40 4 38 32 -3 36 -17 2 -34 -2 -38
-8z"/>
<path d="M725 650 c-11 -18 10 -32 41 -28 40 4 38 32 -3 36 -17 2 -34 -2 -38
-8z"/>
<path d="M725 530 c-11 -18 10 -32 41 -28 40 4 38 32 -3 36 -17 2 -34 -2 -38
-8z"/>
<path d="M725 410 c-11 -18 10 -32 41 -28 40 4 38 32 -3 36 -17 2 -34 -2 -38
-8z"/>
<path d="M404 209 c-10 -17 13 -36 27 -22 12 12 4 33 -11 33 -5 0 -12 -5 -16
-11z"/>
<path d="M464 209 c-10 -17 13 -36 27 -22 12 12 4 33 -11 33 -5 0 -12 -5 -16
-11z"/>
<path d="M524 209 c-10 -17 13 -36 27 -22 12 12 4 33 -11 33 -5 0 -12 -5 -16
-11z"/>
<path d="M584 209 c-10 -17 13 -36 27 -22 12 12 4 33 -11 33 -5 0 -12 -5 -16
-11z"/>
<path d="M644 209 c-10 -17 13 -36 27 -22 12 12 4 33 -11 33 -5 0 -12 -5 -16
-11z"/>
<path d="M704 209 c-10 -17 13 -36 27 -22 12 12 4 33 -11 33 -5 0 -12 -5 -16
-11z"/>
<path d="M764 209 c-10 -17 13 -36 27 -22 12 12 4 33 -11 33 -5 0 -12 -5 -16
-11z"/>
<path d="M260 620 c0 -11 -4 -20 -9 -20 -19 0 -41 -32 -41 -59 0 -34 13 -46
66 -63 28 -9 39 -19 39 -33 0 -30 -64 -35 -72 -6 -6 23 -43 30 -43 8 0 -20 30
-57 46 -57 8 0 14 -7 14 -15 0 -8 9 -15 20 -15 11 0 20 6 20 13 0 7 10 17 22
22 32 15 44 39 33 71 -8 21 -22 31 -60 44 -27 9 -50 22 -49 28 1 7 2 17 3 22
2 16 58 12 65 -5 7 -19 36 -20 36 -1 0 16 -26 46 -41 46 -5 0 -9 9 -9 20 0 13
-7 20 -20 20 -13 0 -20 -7 -20 -20z"/>
</g>
</svg>
